{
    "asset" : {
        "generator" : "Khronos glTF Blender I/O v3.2.40",
        "version" : "2.0"
    },
    "scene" : 0,
    "scenes" : [
        {
            "name" : "Scene",
            "nodes" : [
                21
            ]
        }
    ],
    "nodes" : [
        {
            "mesh" : 0,
            "name" : "Cone",
            "rotation" : [
                -0.1329185664653778,
                -0.09886961430311203,
                -0.12479502707719803,
                0.9782554507255554
            ],
            "scale" : [
                0.07377433776855469,
                0.0737743228673935,
                0.0737743154168129
            ],
            "translation" : [
                -0.27108263969421387,
                2.5351927280426025,
                1.9100017547607422
            ]
        },
        {
            "mesh" : 0,
            "name" : "Cone.001",
            "rotation" : [
                -0.1329185664653778,
                -0.09886961430311203,
                -0.12479502707719803,
                0.9782554507255554
            ],
            "scale" : [
                0.07377433776855469,
                0.0737743228673935,
                0.0737743154168129
            ],
            "translation" : [
                -0.5650243759155273,
                2.5200421810150146,
                1.7808358669281006
            ]
        },
        {
            "mesh" : 0,
            "name" : "Cone.002",
            "rotation" : [
                -0.03817706182599068,
                -0.10388237982988358,
                -0.05829188600182533,
                0.9921457171440125
            ],
            "scale" : [
                0.07377433776855469,
                0.0737743228673935,
                0.0737743228673935
            ],
            "translation" : [
                0.286954402923584,
                2.548444986343384,
                3.030301332473755
            ]
        },
        {
            "mesh" : 0,
            "name" : "Cone.003",
            "rotation" : [
                -0.12493006139993668,
                -0.108588807284832,
                -0.048969052731990814,
                0.9849888682365417
            ],
            "scale" : [
                0.07377433776855469,
                0.0737743228673935,
                0.0737743228673935
            ],
            "translation" : [
                -0.00017690658569335938,
                2.543325185775757,
                2.1332125663757324
            ]
        },
        {
            "mesh" : 0,
            "name" : "Cone.004",
            "rotation" : [
                -0.03817706182599068,
                -0.10388237982988358,
                -0.05829188600182533,
                0.9921457171440125
            ],
            "scale" : [
                0.07377433776855469,
                0.0737743228673935,
                0.0737743228673935
            ],
            "translation" : [
                0.1623324155807495,
                2.546398401260376,
                2.3718550205230713
            ]
        },
        {
            "mesh" : 0,
            "name" : "Cone.005",
            "rotation" : [
                -0.03817706182599068,
                -0.10388237982988358,
                -0.05829188600182533,
                0.9921457171440125
            ],
            "scale" : [
                0.07377433776855469,
                0.0737743228673935,
                0.0737743228673935
            ],
            "translation" : [
                0.27393436431884766,
                2.547450542449951,
                2.710378408432007
            ]
        },
        {
            "mesh" : 0,
            "name" : "Cone.006",
            "rotation" : [
                -0.03817706182599068,
                -0.10388237982988358,
                -0.05829188600182533,
                0.9921457171440125
            ],
            "scale" : [
                0.07377433776855469,
                0.0737743228673935,
                0.0737743228673935
            ],
            "translation" : [
                0.18651294708251953,
                2.549485683441162,
                3.365104913711548
            ]
        },
        {
            "mesh" : 0,
            "name" : "Cone.007",
            "rotation" : [
                -0.03817706182599068,
                -0.10388237982988358,
                -0.05829188600182533,
                0.9921457171440125
            ],
            "scale" : [
                0.07377433776855469,
                0.0737743228673935,
                0.0737743228673935
            ],
            "translation" : [
                0.0023698806762695312,
                2.5503008365631104,
                3.6273674964904785
            ]
        },
        {
            "mesh" : 0,
            "name" : "Cone.008",
            "rotation" : [
                -0.03817706182599068,
                -0.10388237982988358,
                -0.05829188600182533,
                0.9921457171440125
            ],
            "scale" : [
                0.07377433776855469,
                0.0737743228673935,
                0.0737743228673935
            ],
            "translation" : [
                -0.2524539828300476,
                2.5508615970611572,
                3.8077893257141113
            ]
        },
        {
            "mesh" : 0,
            "name" : "Cone.009",
            "rotation" : [
                -0.03817706182599068,
                -0.10388237982988358,
                -0.05829188600182533,
                0.9921457171440125
            ],
            "scale" : [
                0.07377433776855469,
                0.0737743228673935,
                0.0737743228673935
            ],
            "translation" : [
                -0.5911412239074707,
                2.5512382984161377,
                3.9289839267730713
            ]
        },
        {
            "mesh" : 0,
            "name" : "Cone.010",
            "rotation" : [
                -0.03817706182599068,
                -0.10388237982988358,
                -0.05829188600182533,
                0.9921457171440125
            ],
            "scale" : [
                0.07377433776855469,
                0.0737743228673935,
                0.0737743228673935
            ],
            "translation" : [
                -0.9530632495880127,
                2.551215410232544,
                3.9216296672821045
            ]
        },
        {
            "mesh" : 0,
            "name" : "Cone.011",
            "rotation" : [
                -0.03817706182599068,
                -0.10388237982988358,
                -0.05829188600182533,
                0.9921457171440125
            ],
            "scale" : [
                0.07377433776855469,
                0.0737743228673935,
                0.0737743228673935
            ],
            "translation" : [
                -1.2663252353668213,
                2.5508782863616943,
                3.813145637512207
            ]
        },
        {
            "mesh" : 0,
            "name" : "Cone.012",
            "rotation" : [
                -0.03817706182599068,
                -0.10388237982988358,
                -0.05829188600182533,
                0.9921457171440125
            ],
            "scale" : [
                0.07377433776855469,
                0.0737743228673935,
                0.0737743228673935
            ],
            "translation" : [
                -1.5397708415985107,
                2.550307035446167,
                3.629366159439087
            ]
        },
        {
            "mesh" : 0,
            "name" : "Cone.013",
            "rotation" : [
                -0.03817706182599068,
                -0.10388237982988358,
                -0.05829188600182533,
                0.9921457171440125
            ],
            "scale" : [
                0.07377433776855469,
                0.0737743228673935,
                0.0737743228673935
            ],
            "translation" : [
                -1.7360570430755615,
                2.5495011806488037,
                3.3701257705688477
            ]
        },
        {
            "mesh" : 0,
            "name" : "Cone.014",
            "rotation" : [
                -0.03817706182599068,
                -0.10388237982988358,
                -0.05829188600182533,
                0.9921457171440125
            ],
            "scale" : [
                0.07377433776855469,
                0.0737743228673935,
                0.0737743228673935
            ],
            "translation" : [
                -1.837888240814209,
                2.548630952835083,
                3.0901761054992676
            ]
        },
        {
            "mesh" : 0,
            "name" : "Cone.015",
            "rotation" : [
                -0.03817706182599068,
                -0.10388237982988358,
                -0.05829188600182533,
                0.9921457171440125
            ],
            "scale" : [
                0.07377433776855469,
                0.0737743228673935,
                0.0737743228673935
            ],
            "translation" : [
                -1.8510515689849854,
                2.5474984645843506,
                2.7257564067840576
            ]
        },
        {
            "mesh" : 0,
            "name" : "Cone.016",
            "rotation" : [
                -0.03817706182599068,
                -0.10388237982988358,
                -0.05829188600182533,
                0.9921457171440125
            ],
            "scale" : [
                0.07377433776855469,
                0.0737743228673935,
                0.0737743228673935
            ],
            "translation" : [
                -1.7349162101745605,
                2.5463645458221436,
                2.3609797954559326
            ]
        },
        {
            "mesh" : 0,
            "name" : "Cone.017",
            "rotation" : [
                -0.03817706182599068,
                -0.10388237982988358,
                -0.05829188600182533,
                0.9921457171440125
            ],
            "scale" : [
                0.07377433776855469,
                0.0737743228673935,
                0.0737743228673935
            ],
            "translation" : [
                -1.552302598953247,
                2.5456044673919678,
                2.1164658069610596
            ]
        },
        {
            "mesh" : 0,
            "name" : "Cone.018",
            "rotation" : [
                -0.03817706182599068,
                -0.10388237982988358,
                -0.05829188600182533,
                0.9921457171440125
            ],
            "scale" : [
                0.07377433776855469,
                0.0737743228673935,
                0.0737743228673935
            ],
            "translation" : [
                -1.2443617582321167,
                2.5449347496032715,
                1.90096914768219
            ]
        },
        {
            "mesh" : 0,
            "name" : "Cone.019",
            "rotation" : [
                -0.03817706182599068,
                -0.10388237982988358,
                -0.05829188600182533,
                0.9921457171440125
            ],
            "scale" : [
                0.07377433776855469,
                0.0737743228673935,
                0.0737743228673935
            ],
            "translation" : [
                -0.9326759576797485,
                2.5446205139160156,
                1.799860954284668
            ]
        },
        {
            "children" : [
                0,
                1,
                2,
                3,
                4,
                5,
                6,
                7,
                8,
                9,
                10,
                11,
                12,
                13,
                14,
                15,
                16,
                17,
                18,
                19
            ],
            "mesh" : 1,
            "name" : "Body",
            "rotation" : [
                0.0015540975145995617,
                0,
                0,
                1
            ],
            "scale" : [
                1.0934244394302368,
                1.0934245586395264,
                1.0934245586395264
            ],
            "translation" : [
                0.8990465402603149,
                -0.13976222276687622,
                -3.1566579341888428
            ]
        },
        {
            "children" : [
                20
            ],
            "mesh" : 2,
            "name" : "Lid",
            "translation" : [
                0.19731256365776062,
                -0.6677545309066772,
                0.07155833393335342
            ]
        }
    ],
    "materials" : [
        {
            "doubleSided" : true,
            "name" : "Material.004",
            "pbrMetallicRoughness" : {
                "baseColorFactor" : [
                    0.42326778173446655,
                    0.07036010175943375,
                    0.26635563373565674,
                    1
                ],
                "metallicFactor" : 0,
                "roughnessFactor" : 0.4000000059604645
            }
        },
        {
            "doubleSided" : true,
            "name" : "Material.003",
            "pbrMetallicRoughness" : {
                "baseColorFactor" : [
                    0,
                    0,
                    0,
                    1
                ],
                "metallicFactor" : 0,
                "roughnessFactor" : 0.4000000059604645
            }
        },
        {
            "doubleSided" : true,
            "name" : "Material",
            "pbrMetallicRoughness" : {
                "baseColorFactor" : [
                    1,
                    0.09989825636148453,
                    0.5711248517036438,
                    1
                ],
                "metallicFactor" : 0,
                "roughnessFactor" : 0.4000000059604645
            }
        }
    ],
    "meshes" : [
        {
            "name" : "Cone",
            "primitives" : [
                {
                    "attributes" : {
                        "POSITION" : 0,
                        "NORMAL" : 1,
                        "TEXCOORD_0" : 2
                    },
                    "indices" : 3,
                    "material" : 0
                }
            ]
        },
        {
            "name" : "Teapot.002",
            "primitives" : [
                {
                    "attributes" : {
                        "POSITION" : 4,
                        "NORMAL" : 5
                    },
                    "indices" : 6,
                    "material" : 1
                }
            ]
        },
        {
            "name" : "Teapot",
            "primitives" : [
                {
                    "attributes" : {
                        "POSITION" : 7,
                        "NORMAL" : 8
                    },
                    "indices" : 9,
                    "material" : 2
                }
            ]
        }
    ],
    "accessors" : [
        {
            "bufferView" : 0,
            "componentType" : 5126,
            "count" : 65,
            "max" : [
                1,
                1,
                1
            ],
            "min" : [
                -1,
                -1,
                -1
            ],
            "type" : "VEC3"
        },
        {
            "bufferView" : 1,
            "componentType" : 5126,
            "count" : 65,
            "type" : "VEC3"
        },
        {
            "bufferView" : 2,
            "componentType" : 5126,
            "count" : 65,
            "type" : "VEC2"
        },
        {
            "bufferView" : 3,
            "componentType" : 5123,
            "count" : 186,
            "type" : "SCALAR"
        },
        {
            "bufferView" : 4,
            "componentType" : 5126,
            "count" : 201,
            "max" : [
                0.46202731132507324,
                3.185073137283325,
                4.206694602966309
            ],
            "min" : [
                -2.137972593307495,
                2.435073137283325,
                1.6066946983337402
            ],
            "type" : "VEC3"
        },
        {
            "bufferView" : 5,
            "componentType" : 5126,
            "count" : 201,
            "type" : "VEC3"
        },
        {
            "bufferView" : 6,
            "componentType" : 5123,
            "count" : 1140,
            "type" : "SCALAR"
        },
        {
            "bufferView" : 7,
            "componentType" : 5126,
            "count" : 620,
            "max" : [
                3.434000015258789,
                2.494500160217285,
                2
            ],
            "min" : [
                -3,
                0,
                -2
            ],
            "type" : "VEC3"
        },
        {
            "bufferView" : 8,
            "componentType" : 5126,
            "count" : 620,
            "type" : "VEC3"
        },
        {
            "bufferView" : 9,
            "componentType" : 5123,
            "count" : 3540,
            "type" : "SCALAR"
        }
    ],
    "bufferViews" : [
        {
            "buffer" : 0,
            "byteLength" : 780,
            "byteOffset" : 0
        },
        {
            "buffer" : 0,
            "byteLength" : 780,
            "byteOffset" : 780
        },
        {
            "buffer" : 0,
            "byteLength" : 520,
            "byteOffset" : 1560
        },
        {
            "buffer" : 0,
            "byteLength" : 372,
            "byteOffset" : 2080
        },
        {
            "buffer" : 0,
            "byteLength" : 2412,
            "byteOffset" : 2452
        },
        {
            "buffer" : 0,
            "byteLength" : 2412,
            "byteOffset" : 4864
        },
        {
            "buffer" : 0,
            "byteLength" : 2280,
            "byteOffset" : 7276
        },
        {
            "buffer" : 0,
            "byteLength" : 7440,
            "byteOffset" : 9556
        },
        {
            "buffer" : 0,
            "byteLength" : 7440,
            "byteOffset" : 16996
        },
        {
            "buffer" : 0,
            "byteLength" : 7080,
            "byteOffset" : 24436
        }
    ],
    "buffers" : [
        {
            "byteLength" : 31516,
            "uri" : "data:application/octet-stream;base64,"
        }
    ]
}
